<svg id="Layer_1" data-name="Layer 1" xmlns="http://www.w3.org/2000/svg" viewBox="0 0 130.82 65.82"><defs><style>.cls-1{isolation:isolate;}.cls-2{fill:#fff;}.cls-3{fill:none;stroke:#fff;stroke-miterlimit:10;stroke-width:2px;}</style></defs><title>Artboard 1</title><g id="Layer_2" data-name="Layer 2"><g id="Layer_1-2" data-name="Layer 1-2"><g class="cls-1"><path class="cls-2" d="M34.75,11.77H22.82V44.9H18.54V11.77H6.6V7.67H34.75Z"/><path class="cls-2" d="M39.09,5.15h4V23.71h.1a6.51,6.51,0,0,1,1.12-1.45A8.48,8.48,0,0,1,46,21,10.17,10.17,0,0,1,48.22,20a8.79,8.79,0,0,1,2.6-.37,10.2,10.2,0,0,1,4,.74,7.61,7.61,0,0,1,2.84,2.05,8.37,8.37,0,0,1,1.65,3.18,14.57,14.57,0,0,1,.54,4.07V44.9h-4V30.12a8,8,0,0,0-1.33-4.89,4.8,4.8,0,0,0-4.13-1.78,7.65,7.65,0,0,0-3.34.68,5.93,5.93,0,0,0-2.29,1.95,8.79,8.79,0,0,0-1.33,3,15.84,15.84,0,0,0-.43,3.84v12h-4Z"/><path class="cls-2" d="M88.77,40.43a12.22,12.22,0,0,1-4.7,4,14.52,14.52,0,0,1-5.91,1.13,12.05,12.05,0,0,1-5-1,11.46,11.46,0,0,1-3.8-2.76,12.17,12.17,0,0,1-2.4-4.11,14.93,14.93,0,0,1-.84-5A14.57,14.57,0,0,1,67,27.36a12.16,12.16,0,0,1,2.55-4.1,11.36,11.36,0,0,1,3.87-2.65,12.52,12.52,0,0,1,4.9-.95,11.8,11.8,0,0,1,4.59.87,10.12,10.12,0,0,1,3.6,2.52,11.65,11.65,0,0,1,2.32,4.05,17,17,0,0,1,.81,5.44v1.32H70.35a9,9,0,0,0,.74,3,8.88,8.88,0,0,0,1.66,2.53,7.75,7.75,0,0,0,2.4,1.7,7,7,0,0,0,3,.64,9.27,9.27,0,0,0,4.38-1A10.12,10.12,0,0,0,85.76,38Zm-3.42-10a7.17,7.17,0,0,0-2-5.05,7,7,0,0,0-5.2-1.89,7.58,7.58,0,0,0-5.36,1.89,8,8,0,0,0-2.45,5.05Z"/><path class="cls-2" d="M95.24,10.67a3,3,0,0,1,.84-2.1,2.83,2.83,0,0,1,4.14,0,3,3,0,0,1,.84,2.1,3,3,0,0,1-.82,2.16,3,3,0,0,1-4.18,0A3,3,0,0,1,95.24,10.67Zm.92,9.62h4V44.9h-4Z"/><path class="cls-2" d="M107.74,23.45a11.22,11.22,0,0,1,4.36-2.87,14.92,14.92,0,0,1,5.12-.92q5.31,0,7.66,2.58t2.34,7.83V40.64c0,.7,0,1.43.1,2.18s.16,1.45.26,2.08h-3.83a9.47,9.47,0,0,1-.23-1.87c0-.68,0-1.28,0-1.81h-.1a9.5,9.5,0,0,1-3.14,3.1,8.79,8.79,0,0,1-4.72,1.21,12.33,12.33,0,0,1-3.44-.47,8.51,8.51,0,0,1-2.81-1.4,6.82,6.82,0,0,1-1.91-2.28,6.69,6.69,0,0,1-.71-3.16,7,7,0,0,1,1.53-4.78,9.19,9.19,0,0,1,3.8-2.58,18.16,18.16,0,0,1,4.89-1.05c1.75-.14,3.36-.21,4.82-.21h1.53v-.74a5.15,5.15,0,0,0-1.55-4.05,6.4,6.4,0,0,0-4.36-1.36,11.5,11.5,0,0,0-3.8.65,9.12,9.12,0,0,0-3.29,2Zm11.52,9.62a13.93,13.93,0,0,0-6.06,1.1A3.77,3.77,0,0,0,111,37.8a3.61,3.61,0,0,0,1.51,3.29,6.75,6.75,0,0,0,3.75,1,7.19,7.19,0,0,0,3-.6,6.45,6.45,0,0,0,2.17-1.61,6.88,6.88,0,0,0,1.32-2.34,9.53,9.53,0,0,0,.51-2.86V33.07Z"/></g><rect class="cls-2" x="15.1" y="19.33" width="11" height="3.98"/><polyline class="cls-3" points="21.1 21.33 10.1 21.33 5.6 25.83"/><rect class="cls-2" x="0.1" y="25.33" width="9" height="4" transform="translate(-17.98 11.26) rotate(-45)"/></g></g></svg>