<?xml version="1.0" standalone="no"?>
<!DOCTYPE svg PUBLIC "-//W3C//DTD SVG 20010904//EN"
 "http://www.w3.org/TR/2001/REC-SVG-20010904/DTD/svg10.dtd">
<svg version="1.0" xmlns="http://www.w3.org/2000/svg"
 width="260.000000pt" height="260.000000pt" viewBox="0 0 260.000000 260.000000"
 preserveAspectRatio="xMidYMid meet">
<metadata>
Created by potrace 1.11, written by Peter Selinger 2001-2013
</metadata>
<g transform="translate(0.000000,260.000000) scale(0.100000,-0.100000)"
fill="#000000" stroke="none">
<path d="M0 1300 l0 -1300 1300 0 1300 0 0 1300 0 1300 -1300 0 -1300 0 0
-1300z m2580 0 l0 -1280 -1280 0 -1280 0 0 1280 0 1280 1280 0 1280 0 0 -1280z"/>
<path d="M1140 1920 l0 -100 195 0 195 0 0 -615 0 -615 110 0 110 0 0 615 0
615 195 0 195 0 0 100 0 100 -500 0 -500 0 0 -100z"/>
</g>
</svg>
